<svg xmlns="http://www.w3.org/2000/svg" width="32" height="32" viewBox="0 0 32 32">
    <g fill="none" fill-rule="evenodd">
        <path fill="#FFCA28" d="M32 16c0 8.837-7.163 16-16 16S0 24.837 0 16 7.163 0 16 0s16 7.163 16 16"/>
        <path fill="#263238" d="M6.908 13.804a.612.612 0 0 1-.432-1.044l6.18-6.18a.612.612 0 1 1 .864.864l-6.176 6.18a.608.608 0 0 1-.432.18h-.004z"/>
        <path fill="#263238" d="M13.092 13.804a.608.608 0 0 1-.432-.18l-6.184-6.18a.612.612 0 1 1 .864-.864l6.184 6.18a.612.612 0 0 1-.432 1.044zM18.908 13.804a.612.612 0 0 1-.432-1.044l6.18-6.18a.612.612 0 0 1 .864.864l-6.176 6.18a.608.608 0 0 1-.432.18h-.004z"/>
        <path fill="#263238" d="M25.092 13.804a.612.612 0 0 1-.432-.18l-6.184-6.18a.612.612 0 0 1 .864-.864l6.184 6.18a.612.612 0 0 1-.432 1.044z"/>
        <path fill="#E53935" d="M16.064 20.372v7.372c0 1.808 1.908 3.284 4.24 3.284h.376c2.332 0 4.24-1.48 4.24-3.284v-7.372h-8.856z"/>
        <path fill="#B71C1C" d="M20.492 27.624a.68.68 0 0 1-.68-.68v-5.788a.682.682 0 1 1 1.364 0v5.788a.68.68 0 0 1-.68.68h-.004z"/>
        <path fill="#253237" d="M24.92 21.532H7.08a.682.682 0 0 1 0-1.364h17.84a.682.682 0 1 1 0 1.364z"/>
    </g>
</svg>
