<svg xmlns="http://www.w3.org/2000/svg" width="32" height="32" viewBox="0 0 32 32">
    <g fill="none" fill-rule="evenodd">
        <circle cx="16" cy="16" r="16" fill="#FFCA28"/>
        <path fill="#B71C1C" d="M16 16.544A9.008 9.008 0 0 0 7.04 25.6h17.92A9.009 9.009 0 0 0 16 16.544"/>
        <path fill="#E53935" d="M7.04 25.6c0-2.272 4-4.116 8.96-4.116 4.96 0 8.96 1.844 8.96 4.116"/>
        <path fill="#263238" d="M7.092 14.4a.692.692 0 0 1-.4-1.264l4.04-2.736-4.028-2.736a.692.692 0 0 1 .772-1.144l4.872 3.308a.692.692 0 0 1 0 1.144L7.476 14.28a.684.684 0 0 1-.4.12h.016zM24.908 14.4a.684.684 0 0 1-.4-.12l-4.876-3.308a.692.692 0 0 1 0-1.144l4.876-3.308a.692.692 0 0 1 .772 1.144L21.268 10.4l4.032 2.736a.692.692 0 0 1-.4 1.264h.008z"/>
    </g>
</svg>
