<svg xmlns="http://www.w3.org/2000/svg" width="32" height="32" viewBox="0 0 32 32">
    <g fill="none" fill-rule="evenodd">
        <path fill="#FFCA28" d="M32 16c0 8.837-7.163 16-16 16S0 24.837 0 16 7.163 0 16 0s16 7.163 16 16"/>
        <path fill="#E53935" d="M22.98 18.8a.668.668 0 0 0-.552-.044.8.8 0 0 0-.452.452c-1.08 2.688-3.428 4.428-5.976 4.428s-4.892-1.752-5.976-4.436a.8.8 0 0 0-.448-.448.668.668 0 0 0-.552.04.876.876 0 0 0-.356 1.088c1.332 3.276 4.196 5.4 7.332 5.4s6-2.124 7.336-5.408a.88.88 0 0 0-.356-1.072z"/>
        <path fill="#FFF" d="M27.296 10.448a4.448 4.448 0 1 1-8.896 0 4.448 4.448 0 0 1 8.896 0"/>
        <path fill="#263238" d="M24.608 10.304a1.904 1.904 0 1 1-3.808 0 1.904 1.904 0 0 1 3.808 0"/>
        <path fill="#FFF" d="M14.096 10.448a4.448 4.448 0 1 1-8.896 0 4.448 4.448 0 0 1 8.896 0"/>
        <path fill="#263238" d="M11.408 10.304a1.904 1.904 0 1 1-3.808 0 1.904 1.904 0 0 1 3.808 0"/>
    </g>
</svg>
