<svg xmlns="http://www.w3.org/2000/svg" width="32" height="32" viewBox="0 0 32 32">
    <g fill="none" fill-rule="evenodd">
        <path fill="#FFCA28" d="M32 16c0 8.837-7.163 16-16 16S0 24.837 0 16 7.163 0 16 0s16 7.163 16 16"/>
        <path fill="#E53935" d="M21.904 24.768H10.096c-.284 0-.512-.4-.512-.916s.228-.916.512-.916h11.808c.284 0 .512.4.512.916s-.232.916-.512.916z"/>
        <path fill="#FFF" d="M27 11.68a4.448 4.448 0 1 1-8.896 0 4.448 4.448 0 0 1 8.896 0"/>
        <path fill="#263238" d="M24.148 11.464a1.904 1.904 0 1 1-3.808 0 1.904 1.904 0 0 1 3.808 0"/>
        <path fill="#FFF" d="M13.892 11.68a4.448 4.448 0 1 1-8.896 0 4.448 4.448 0 0 1 8.896 0"/>
        <path fill="#263238" d="M11.04 11.464a1.904 1.904 0 1 1-3.808 0 1.904 1.904 0 0 1 3.808 0"/>
    </g>
</svg>
