<svg xmlns="http://www.w3.org/2000/svg" width="32" height="32" viewBox="0 0 32 32">
    <g fill="none" fill-rule="evenodd">
        <path fill="#FFCA28" d="M32 16c0 8.837-7.163 16-16 16S0 24.837 0 16 7.163 0 16 0s16 7.163 16 16"/>
        <path fill="#E53935" d="M25.436 20.272H6.564a10.5 10.5 0 0 0 19.284-.932 9.868 9.868 0 0 1-.412.932z"/>
        <path fill="#FFF" d="M25.436 20.272a9.868 9.868 0 0 0 .684-1.832l.024-.08c.067-.274.12-.552.16-.832 0-.052.02-.104.028-.156a7.76 7.76 0 0 0 .068-.972H5.6c0 .325.022.65.064.972 0 .052 0 .104.028.152.04.28.093.558.16.832l.024.08a9.752 9.752 0 0 0 .684 1.832l18.876.004z"/>
        <path fill="#0277BD" d="M10.12 5.82l1.104 2.24 2.472.356-1.788 1.744.424 2.46-2.212-1.164-2.208 1.164.42-2.46-1.788-1.744 2.472-.356zM21.88 5.82l1.104 2.24 2.472.356-1.788 1.744.42 2.46-2.208-1.164-2.212 1.164.424-2.46-1.788-1.744 2.472-.356z"/>
    </g>
</svg>
