<?xml version="1.0" encoding="UTF-8"?>
<svg version="1.1" viewBox="0 0 26 26" xmlns="http://www.w3.org/2000/svg">
<title>Call Statistics@2x</title>
<desc>Created with Sketch.</desc>
<g fill="none" fill-rule="evenodd">
<g transform="translate(-1098 -189)" fill-rule="nonzero">
<g transform="translate(1098 189)">
<polygon id="Path" points="8.0895 6.2545 4.9622 9.8419 6.3025 9.8419 6.3025 23.519 9.8765 23.519 9.8765 9.8419 11.217 9.8419" fill="#7AB1F6" fill-opacity=".69772"/>
<polygon id="Path" points="22.408 12.974 19.28 16.564 20.621 16.564 20.621 23.519 24.195 23.519 24.195 16.564 25.535 16.564" fill="#7AB1F6" fill-opacity=".69772"/>
<polygon id="a" points="15.223 0 12.095 3.5838 13.436 3.5838 13.436 23.519 17.01 23.519 17.01 3.5838 18.35 3.5838" fill="#484B7F"/>
<polygon points="3.1379 22.862 3.1379 0 0 0 0 24.207 0 26 1.7931 26 26 26 26 22.862" fill="#6C6766"/>
</g>
</g>
</g>
</svg>
