<?xml version="1.0" encoding="UTF-8"?>
<svg width="26px" height="26px" viewBox="0 0 26 26" version="1.1" xmlns="http://www.w3.org/2000/svg" xmlns:xlink="http://www.w3.org/1999/xlink">
    <!-- Generator: Sketch 63.1 (92452) - https://sketch.com -->
    <title>Call Statistics@2x</title>
    <desc>Created with Sketch.</desc>
    <g id="Page-1" stroke="none" stroke-width="1" fill="none" fill-rule="evenodd">
        <g id="11" transform="translate(-1098.000000, -189.000000)" fill-rule="nonzero">
            <g id="Call-Statistics" transform="translate(1098.000000, 189.000000)">
                <g id="analytics">
                    <polygon id="Path" fill-opacity="0.697716346" fill="#7AB1F6" points="8.08948852 6.25447316 4.96222664 9.84190026 6.3024745 9.84190026 6.3024745 23.5188867 9.87645194 23.5188867 9.87645194 9.84190026 11.2166998 9.84190026"></polygon>
                    <polygon id="Path" fill-opacity="0.697716346" fill="#7AB1F6" points="22.4075547 12.9741551 19.2803181 16.5638715 20.6205768 16.5638715 20.6205768 23.5188867 24.1945832 23.5188867 24.1945832 16.5638715 25.5347913 16.5638715"></polygon>
                    <polygon id="Path" fill="#484B7F" points="15.222664 0 12.0954274 3.58384823 13.4356861 3.58384823 13.4356861 23.5188867 17.0096419 23.5188867 17.0096419 3.58384823 18.3499006 3.58384823"></polygon>
                    <polygon id="Path" fill="#6C6766" points="3.13792578 22.8620742 3.13792578 0 0 0 0 24.2069141 0 26 1.79308594 26 26 26 26 22.8620742"></polygon>
                </g>
            </g>
        </g>
    </g>
</svg>