<?xml version="1.0" encoding="UTF-8"?>
<svg width="26px" height="26px" viewBox="0 0 26 26" version="1.1" xmlns="http://www.w3.org/2000/svg" xmlns:xlink="http://www.w3.org/1999/xlink">
    <!-- Generator: Sketch 63.1 (92452) - https://sketch.com -->
    <title>Group 13@2x</title>
    <desc>Created with Sketch.</desc>
    <g id="Page-1" stroke="none" stroke-width="1" fill="none" fill-rule="evenodd">
        <g id="11" transform="translate(-121.000000, -300.000000)" fill-rule="nonzero">
            <g id="Group-10" transform="translate(121.000000, 291.000000)">
                <g id="Group-6">
                    <g id="Group-13" transform="translate(0.000000, 9.000000)">
                        <g id="phone-receiver">
                            <path d="M26,6.54935139 C26,2.93233327 22.3085916,0 17.7554672,0 C13.2019876,0 9.51093439,2.93233327 9.51093439,6.54935139 C9.51093439,9.780806 12.4570379,12.4654873 16.3321464,13.0011952 L16.3204241,13.0011952 C16.5237629,14.2505712 16.1485985,15.5771513 15.194322,16.5407555 C17.241868,16.5407555 18.9321122,14.9982477 19.1888357,13.0013982 L19.1771134,13.0013982 C23.0527294,12.4661472 26,9.78126283 26,6.54935139 Z" id="Path" fill-opacity="0.697716346" fill="#7AB1F6"></path>
                            <g id="Group" transform="translate(14.214712, 5.944334)" fill="#484B7F">
                                <ellipse id="Oval" cx="0.6246504" cy="0.621518887" rx="1" ry="1"></ellipse>
                                <ellipse id="Oval" cx="6.46001919" cy="0.621518887" rx="1" ry="1"></ellipse>
                                <ellipse id="Oval" cx="3.54258953" cy="0.621518887" rx="1" ry="1"></ellipse>
                            </g>
                            <path d="M17.7578394,20.9137868 C16.5102173,19.6662183 15.1740085,18.6160161 15.1740085,18.6160161 L13.2271295,20.5628907 L5.43707661,12.7728553 L7.38395561,10.8259299 C7.38395561,10.8259299 6.33380181,9.48972404 5.08617972,8.24210474 C3.83855764,6.99453618 2.5023488,5.944334 2.5023488,5.944334 C2.5023488,5.944334 0.169615146,8.09035081 0.012685699,9.79247086 C-0.197213145,12.0707587 2.2144165,16.2129663 6.0007136,19.9993057 C9.7870107,23.7855436 13.9292276,26.1971679 16.2075205,25.9873202 C17.9095937,25.8303404 20.055666,23.497612 20.055666,23.497612 C20.055666,23.497612 19.0054615,22.1613046 17.7578394,20.9137868 Z" id="Path" fill="#6C6766"></path>
                        </g>
                    </g>
                </g>
            </g>
        </g>
    </g>
</svg>