<?xml version="1.0" encoding="UTF-8"?>
<svg version="1.1" viewBox="0 0 26 26" xmlns="http://www.w3.org/2000/svg">
<title>Group 13@2x</title>
<desc>Created with Sketch.</desc>
<g fill="none" fill-rule="evenodd">
<g transform="translate(-121 -300)" fill-rule="nonzero">
<g transform="translate(121 291)">
<g transform="translate(0 9)">
<path id="b" d="m26 6.5494c0-3.617-3.6914-6.5494-8.2445-6.5494-4.5535 0-8.2445 2.9323-8.2445 6.5494 0 3.2315 2.9461 5.9161 6.8212 6.4518h-0.011722c0.20334 1.2494-0.17183 2.576-1.1261 3.5396 2.0475 0 3.7378-1.5425 3.9945-3.5394h-0.011722c3.8756-0.53525 6.8229-3.2201 6.8229-6.452z" fill="#7AB1F6" fill-opacity=".69772"/>
<g transform="translate(14.215 5.9443)" fill="#484B7F">
<ellipse id="Oval" cx=".62465" cy=".62152" rx="1" ry="1"/>
<ellipse id="a" cx="6.46" cy=".62152" rx="1" ry="1"/>
<ellipse cx="3.5426" cy=".62152" rx="1" ry="1"/>
</g>
<path d="m17.758 20.914c-1.2476-1.2476-2.5838-2.2978-2.5838-2.2978l-1.9469 1.9469-7.7901-7.79 1.9469-1.9469s-1.0502-1.3362-2.2978-2.5838c-1.2476-1.2476-2.5838-2.2978-2.5838-2.2978s-2.3327 2.146-2.4897 3.8481c-0.2099 2.2783 2.2017 6.4205 5.988 10.207 3.7863 3.7862 7.9285 6.1979 10.207 5.988 1.7021-0.15698 3.8481-2.4897 3.8481-2.4897s-1.0502-1.3363-2.2978-2.5838z" fill="#6C6766"/>
</g>
</g>
</g>
</g>
</svg>
