<?xml version="1.0" encoding="UTF-8"?>
<svg version="1.1" viewBox="0 0 22 26" xmlns="http://www.w3.org/2000/svg">
<title>ic_operators@2x</title>
<desc>Created with Sketch.</desc>
<g fill="none" fill-rule="evenodd">
<g transform="translate(-447 -191)">
<g transform="translate(445 191)">
<rect y="1" width="26" height="26"/>
<g transform="translate(2 6.7197)" fill-rule="nonzero">
<path id="Path" d="m2.1071 0.022223c-1.1589 0-2.0984 0.93794-2.0984 2.095 0 1.157 0.93946 2.095 2.0984 2.095 0.071097 0 0.13864-0.0036531 0.20801-0.010503l1.5246e-4 -4.1689c-0.069319-0.0068496-0.13701-0.010503-0.20816-0.010503z" fill="#6C6766"/>
<path id="Path" d="m19.034 0.022223c1.1589 0 2.0984 0.93794 2.0984 2.095 0 1.157-0.93946 2.095-2.0984 2.095-0.071097 0-0.13864-0.0036531-0.20801-0.010503l-1.525e-4 -4.1689c0.069319-0.0068496 0.13701-0.010503 0.20816-0.010503z" fill="#6C6766"/>
<path id="a" d="m20.896 19.28c-0.80326-4.9708-5.12-8.7674-10.326-8.7674-5.2056 0-9.5224 3.7966-10.326 8.7674h20.651z" fill="#7AB1F6" fill-opacity=".69772"/>
</g>
<circle cx="12.545" cy="8.839" r="6.7197" fill="#7AB1F6" fill-opacity=".69772" fill-rule="nonzero"/>
<path d="m12.545 13.078h-7.4844c-0.15716 0-0.30109-0.087548-0.37324-0.22679-0.64197-1.2389-0.98138-2.6342-0.98138-4.035 0-4.8611 3.9652-8.8158 8.839-8.8158 4.8738 0 8.8389 3.9547 8.8389 8.8157 0 1.4009-0.33935 2.7963-0.98138 4.0351-0.10649 0.20566-0.36006 0.28625-0.56611 0.17984-0.20616-0.10626-0.2869-0.35911-0.18031-0.56463 0.58896-1.1364 0.88751-2.3645 0.88751-3.6502 0-4.3989-3.5882-7.9776-7.9986-7.9776-4.4105 0-7.9986 3.5787-7.9986 7.9775 0 1.2007 0.26039 2.3511 0.77446 3.4236l7.2242 1.015e-4c0.23205 0 0.42015 0.1876 0.42015 0.41904s-0.18809 0.41916-0.42015 0.41916z" fill="#484B7F" fill-rule="nonzero"/>
</g>
</g>
</g>
</svg>
