<?xml version="1.0" encoding="UTF-8"?>
<svg version="1.1" viewBox="0 0 26 26" xmlns="http://www.w3.org/2000/svg">
<title>Response Time@2x</title>
<desc>Created with Sketch.</desc>
<g fill="none" fill-rule="evenodd">
<g transform="translate(-772 -189)" fill-rule="nonzero">
<g transform="translate(772 189)">
<circle id="b" cx="14.344" cy="11.656" r="11.656" fill="#7AB1F6" fill-opacity=".69772"/>
<g transform="translate(13.853 4.0318)" fill="#6C6766">
<path id="Path" d="m0.47959 0.022814c-0.24663 0-0.44661 0.2008-0.44661 0.44855v4.9338c0 0.2477 0.19993 0.44855 0.44661 0.44855 0.24668 0 0.44661-0.2008 0.44661-0.44855v-4.9339c-5.059e-5 -0.2477-0.19998-0.4485-0.44661-0.4485z"/>
<path id="a" d="m4.5913 11.143-2.2151-2.2247c-0.17524-0.16996-0.45379-0.16757-0.62605 0.0054875-0.17226 0.17301-0.17469 0.45277-0.0054637 0.62877l2.2151 2.2247c0.17524 0.16996 0.45379 0.16757 0.62605-0.0054875 0.17231-0.17306 0.17474-0.45277 0.0054637-0.62877z"/>
</g>
<path d="m4.5423 11.98 1.0313 1.5452c0.20537 0.30787 0.13827 0.72199-0.15381 0.94925l-1.2686 0.98648c-0.27512 0.21186-0.35421 0.59292-0.18607 0.89678 0.37265 0.66856 0.72422 1.4591 2.4721 3.2065 1.7479 1.7474 2.538 2.0994 3.2066 2.472 0.30387 0.16808 0.68495 0.089043 0.89682-0.18606l0.98653-1.2685c0.22727-0.29202 0.64142-0.35917 0.9493-0.15381l1.5941 1.0627 1.7936 1.1959c0.31367 0.20892 0.40785 0.62746 0.21391 0.95057l-0.85197 1.4165c-0.22569 0.38284-0.59001 0.66429-1.0175 0.78605-1.4125 0.38741-4.529 0.46589-9.5217-4.5288-4.9926-4.9947-4.9142-8.1073-4.5267-9.5198 0.12176-0.42744 0.40318-0.79168 0.78609-1.0174l1.4165-0.85193c0.32317-0.19393 0.74169-0.09976 0.95062 0.2139l1.2287 1.8447z" fill="#484B7F"/>
<circle cx="14.344" cy="11.656" r="2.2485" fill="#6C6766"/>
</g>
</g>
</g>
</svg>
