<?xml version="1.0" encoding="UTF-8"?>
<svg version="1.1" viewBox="0 0 26 26" xmlns="http://www.w3.org/2000/svg">
<title>Group 12</title>
<desc>Created with Sketch.</desc>
<g fill="none" fill-rule="evenodd">
<g transform="translate(-121 -197)" fill-rule="nonzero">
<g id="a" transform="translate(121 189)">
<g transform="translate(0 8)">
<path id="Path" d="m14.887 0.7758 0.64281-0.6426c0.1774-0.1776 0.46541-0.1776 0.64281 0l9.6426 9.6424c0.1776 0.1776 0.1776 0.4654 0 0.643l-0.64261 0.6426c-0.1776 0.1776-0.46541 0.1776-0.64301 0l-9.6426-9.6424c-0.1774-0.1776-0.1774-0.4654 0-0.643z" fill="#6C6766"/>
<path d="m12.034 12.213c2.3375 1.5359 3.2807 4.5069 2.2595 7.1168l-0.010106 0.0012686-0.11184 0.2666c-0.292 0.64362-0.6993 1.2299-1.2029 1.7298l-2.5702 2.557-5.8073-5.7778c0.2458 0.11344 0.57877 0.25797 0.98474 0.41277-0.39841-0.15409-0.72568-0.29746-0.96808-0.4103l-2.5444-2.5532 2.5668-2.5759c1.9756-1.9829 5.0661-2.303 7.4038-0.76708zm3.5047-10.15 8.3461 8.3712-0.3713 0.37222-0.01613 0.0025483-2.1714 2.1664c-1.5473 1.5447-3.825 2.1084-5.917 1.4645-2.0854-0.64193-3.6449-2.379-4.0561-4.5155-0.0021476-7.7565e-4 -0.0036745-0.0012495-0.0051912-0.0017205-0.36002-1.9222 0.2472-3.8991 1.6235-5.2847l2.5674-2.575z" fill="#7AB1F6" fill-opacity=".69772"/>
<path id="Path" d="m4.5913 18.107c-0.30236-0.15751-0.46429-0.25794-0.46429-0.25794" fill="#E4C05C"/>
<g transform="translate(14.722 12.794)" fill="#484B7F">
<path id="Path" d="m3.1194 12.297c-0.067076 0-0.13336-0.015257-0.19351-0.04478l-2.6696-1.2883c-0.17293-0.083813-0.27325-0.26868-0.24891-0.45969 0.02414-0.19081 0.16739-0.34496 0.35596-0.38261 3.6821-0.73728 6.6681-3.4294 7.7856-7.0191 0.20697-0.66615 0.34626-1.3511 0.41631-2.045 0.024733-0.24609 0.24397-0.42561 0.48972-0.40084 0.24575 0.024768 0.42482 0.24431 0.40008 0.4904-0.076178 0.75353-0.22774 1.4975-0.45193 2.221-1.0839 3.4786-3.7921 6.2103-7.2577 7.3209l1.5691 0.75729c0.18758 0.090946 0.2875 0.29959 0.2408 0.50308-0.046498 0.20349-0.22735 0.34774-0.4359 0.34774z"/>
<path id="Path" d="m0.44955 11.009c-0.16284-3.963e-4 -0.31283-0.089361-0.39118-0.23222-0.078355-0.14306-0.073012-0.31742 0.014246-0.45513l1.5962-2.5205c0.083499-0.13929 0.23605-0.22251 0.3983-0.21716 0.16225 0.0053498 0.30887 0.098476 0.38307 0.24292 0.074002 0.14464 0.064108 0.31821-0.026118 0.45334l-1.5968 2.5205c-0.081916 0.12958-0.22458 0.20825-0.37773 0.20825z"/>
</g>
<path id="Path" d="m0.1332 15.53 0.6426-0.6426c0.1776-0.1776 0.4654-0.1776 0.643 0l9.6424 9.6424c0.1776 0.1776 0.1776 0.4654 0 0.643l-0.6426 0.6426c-0.1776 0.1776-0.4656 0.1776-0.643 0l-9.6424-9.6424c-0.1776-0.1776-0.1776-0.4654 0-0.643z" fill="#6C6766"/>
<path id="b" d="m2.2692 12.553h-0.044718c-0.11832-0.011894-0.22695-0.070544-0.30194-0.16308-0.074991-0.092333-0.11021-0.21102-0.097746-0.32931 0.076376-0.75373 0.22774-1.4977 0.45212-2.221 1.0837-3.4784 3.7917-6.2099 7.2571-7.3207l-1.5689-0.75709c-0.14959-0.065981-0.25129-0.20844-0.26534-0.37171-0.013851-0.16307 0.06213-0.32079 0.19826-0.41114 0.13633-0.09055 0.31085-0.099466 0.45549-0.023182l2.6696 1.2883c0.17293 0.083615 0.27325 0.26868 0.24892 0.45949-0.02414 0.19101-0.16739 0.34496-0.35576 0.38261-3.6823 0.73748-6.6683 3.4294-7.7858 7.0193-0.20598 0.66595-0.34468 1.3509-0.41413 2.0444-0.022952 0.22984-0.21666 0.40421-0.44718 0.40302z" fill="#484B7F"/>
<path d="m9.2322 5.6157c-0.16284-1.9962e-4 -0.31263-0.089165-0.39118-0.23222-0.078355-0.14286-0.072815-0.31722 0.014246-0.45513l1.5968-2.5205c0.083499-0.13929 0.23586-0.22251 0.39811-0.21716 0.16225 0.0053498 0.30887 0.098476 0.38307 0.24312 0.0742 0.14464 0.064306 0.31802-0.02592 0.45315l-1.5964 2.5205c-0.082114 0.12998-0.22517 0.20864-0.37871 0.20825z" fill="#484B7F"/>
</g>
</g>
</g>
</g>
</svg>
